<svg xmlns="http://www.w3.org/2000/svg" xmlns:xlink="http://www.w3.org/1999/xlink" x="0px" y="0px" width="32px" height="32px" viewBox="0 0 32 32"><g transform="translate(0, 0)"><path data-color="color-2" fill="#ffffff" d="M28,0H4C3.447,0,3,0.448,3,1v18c0,0.552,0.447,1,1,1h24c0.553,0,1-0.448,1-1V1
	C29,0.448,28.553,0,28,0z M26,17H6V3h20V17z"></path>
<path fill="#ffffff" d="M28,22H4c-2.206,0-4,1.794-4,4v5c0,0.552,0.447,1,1,1h30c0.553,0,1-0.448,1-1v-5C32,23.794,30.206,22,28,22z
	 M9,28H5v-2h4V28z M27,28H17v-2h10V28z"></path></g></svg>