<svg xmlns="http://www.w3.org/2000/svg" xmlns:xlink="http://www.w3.org/1999/xlink" x="0px" y="0px" width="64px" height="64px" viewBox="0 0 64 64"><g transform="translate(0, 0)"><path fill="#ffffff" d="M31,15.955c-4.364-0.349-9.325-2.819-10.674-4.017c-1.343,0.946-2.587,2.037-3.721,3.253l-5.898-5.898
	c-0.391-0.391-1.023-0.391-1.414,0s-0.391,1.023,0,1.414l5.999,5.999C11.789,21.108,9.594,26.816,9.112,33H2c-0.553,0-1,0.447-1,1
	s0.447,1,1,1h7.016C9.013,35.191,9,35.38,9,35.571c0,6.43,1.87,12.345,4.988,17.027l-6.695,6.695c-0.391,0.391-0.391,1.023,0,1.414
	C7.488,60.902,7.744,61,8,61s0.512-0.098,0.707-0.293l6.465-6.465c3.99,5.111,9.59,8.406,15.828,8.726V15.955z M22.5,25
	c1.933,0,3.5,1.567,3.5,3.5S24.433,32,22.5,32S19,30.433,19,28.5S20.567,25,22.5,25z M21,48c-2.761,0-5-2.239-5-5s2.239-5,5-5
	s5,2.239,5,5S23.761,48,21,48z"></path>
<path fill="#ffffff" d="M62,33h-7.112c-0.481-6.188-2.676-11.896-6.178-16.296l5.997-5.997c0.391-0.391,0.391-1.023,0-1.414
	s-1.023-0.391-1.414,0l-5.896,5.896c-1.135-1.215-2.378-2.307-3.722-3.253c-1.348,1.198-6.309,3.67-10.675,4.018v47.013
	c6.238-0.321,11.838-3.616,15.828-8.726l6.465,6.465C55.488,60.902,55.744,61,56,61s0.512-0.098,0.707-0.293
	c0.391-0.391,0.391-1.023,0-1.414l-6.695-6.695C53.13,47.916,55,42.001,55,35.571c0-0.192-0.013-0.38-0.017-0.571H62
	c0.553,0,1-0.447,1-1S62.553,33,62,33z M41.5,25c1.933,0,3.5,1.567,3.5,3.5S43.433,32,41.5,32S38,30.433,38,28.5S39.567,25,41.5,25z
	 M43,48c-2.761,0-5-2.239-5-5s2.239-5,5-5s5,2.239,5,5S45.761,48,43,48z"></path>
<path data-color="color-2" fill="#ffffff" d="M43.707,1.293c-0.391-0.391-1.023-0.391-1.414,0l-3.874,3.874C36.655,3.81,34.412,3,32,3
	s-4.655,0.81-6.419,2.167l-3.874-3.874c-0.391-0.391-1.023-0.391-1.414,0s-0.391,1.023,0,1.414l3.836,3.836
	c-1.029,1.186-1.773,2.605-2.107,4.175C23.441,11.583,27.794,14,32,14s8.559-2.417,9.978-3.281c-0.334-1.57-1.078-2.99-2.107-4.175
	l3.836-3.836C44.098,2.316,44.098,1.684,43.707,1.293z"></path></g></svg>