<svg xmlns="http://www.w3.org/2000/svg" xmlns:xlink="http://www.w3.org/1999/xlink" x="0px" y="0px" width="64px" height="64px" viewBox="0 0 64 64"><g transform="translate(0, 0)"><path fill="#ffffff" d="M23,18H1v40c0,1.105,0.895,2,2,2h20V18z M8,26h6c0.553,0,1,0.447,1,1s-0.447,1-1,1H8c-0.553,0-1-0.447-1-1
	S7.447,26,8,26z M8,32h3c0.553,0,1,0.447,1,1s-0.447,1-1,1H8c-0.553,0-1-0.447-1-1S7.447,32,8,32z M8,38h6c0.553,0,1,0.447,1,1
	s-0.447,1-1,1H8c-0.553,0-1-0.447-1-1S7.447,38,8,38z M8,44h3c0.553,0,1,0.447,1,1s-0.447,1-1,1H8c-0.553,0-1-0.447-1-1
	S7.447,44,8,44z M14,52H8c-0.553,0-1-0.447-1-1s0.447-1,1-1h6c0.553,0,1,0.447,1,1S14.553,52,14,52z"></path>
<path fill="#ffffff" d="M25,18v42h36c1.105,0,2-0.895,2-2V18H25z M39,32h8c0.553,0,1,0.447,1,1s-0.447,1-1,1h-8
	c-0.553,0-1-0.447-1-1S38.447,32,39,32z M33,26h6c0.553,0,1,0.447,1,1s-0.447,1-1,1h-6c-0.553,0-1-0.447-1-1S32.447,26,33,26z
	 M39,52h-6c-0.553,0-1-0.447-1-1s0.447-1,1-1h6c0.553,0,1,0.447,1,1S39.553,52,39,52z M47,46h-8c-0.553,0-1-0.447-1-1s0.447-1,1-1h8
	c0.553,0,1,0.447,1,1S47.553,46,47,46z M55,40H44c-0.553,0-1-0.447-1-1s0.447-1,1-1h11c0.553,0,1,0.447,1,1S55.553,40,55,40z"></path>
<path data-color="color-2" fill="#ffffff" d="M61,4H3C1.895,4,1,4.895,1,6v10h62V6C63,4.895,62.105,4,61,4z M7,12c-1.105,0-2-0.895-2-2
	c0-1.105,0.895-2,2-2s2,0.895,2,2C9,11.105,8.105,12,7,12z M14,12c-1.105,0-2-0.895-2-2c0-1.105,0.895-2,2-2s2,0.895,2,2
	C16,11.105,15.105,12,14,12z M21,12c-1.105,0-2-0.895-2-2c0-1.105,0.895-2,2-2s2,0.895,2,2C23,11.105,22.105,12,21,12z"></path></g></svg>