<svg xmlns="http://www.w3.org/2000/svg" xmlns:xlink="http://www.w3.org/1999/xlink" x="0px" y="0px" width="64px" height="64px" viewBox="0 0 64 64"><g transform="translate(0, 0)"><path fill="#ffffff" d="M32,1C14.9,1,1,14.9,1,32s13.9,31,31,31c17.1,0,31-13.9,31-31S49.1,1,32,1z M15,24c0-2.8,2.2-5,5-5
	c2.8,0,5,2.2,5,5c0,2.8-2.2,5-5,5C17.2,29,15,26.8,15,24z M32,51c-6.1,0-11-4.9-11-11c0-0.6,0.4-1,1-1h20c0.6,0,1,0.4,1,1
	C43,46.1,38.1,51,32,51z M44,29c-2.8,0-5-2.2-5-5c0-2.8,2.2-5,5-5c2.8,0,5,2.2,5,5C49,26.8,46.8,29,44,29z"></path></g></svg>